<?xml version="1.0" encoding="utf-8"?>
<!-- Generator: Adobe Illustrator 17.0.0, SVG Export Plug-In . SVG Version: 6.00 Build 0)  -->
<!DOCTYPE svg PUBLIC "-//W3C//DTD SVG 1.1//EN" "http://www.w3.org/Graphics/SVG/1.1/DTD/svg11.dtd">
<svg version="1.1" id="Layer_1" xmlns="http://www.w3.org/2000/svg" xmlns:xlink="http://www.w3.org/1999/xlink" x="0px" y="0px"
	 width="435.673px" height="402.326px" viewBox="-5.154 0 435.673 402.326" enable-background="new -5.154 0 435.673 402.326"
	 xml:space="preserve">
<g id="Square" display="none">
</g>
<g id="Connected_Points" display="none">
</g>
<g id="Perfect">
	<g>
		<g>
			<polygon fill="#8E8E8E" points="116.538,218.559 212.286,164.266 212.682,53.565 105.373,15.108 24.738,46.122 8.61,104.855 
				27.219,140.404 88.209,178.888 			"/>
			<polygon fill="#41CE7C" points="307.178,220.04 212.286,164.266 116.218,219.274 136.567,331.434 203.744,385.76 262.672,370.36 
				284.154,336.47 286.987,264.409 			"/>
			<polygon fill="#E1A92B" points="213.141,54.2 212.286,164.266 307.957,219.96 394.917,146.256 408.376,60.917 365.576,17.584 
				325.485,15.925 261.661,49.502 			"/>
			<path fill="#444444" d="M38.764,167.067c55.767,23.584,86.458,84.477,84.887,136.148c-1.861,61.204,39.379,99.111,88.635,99.111
				s89.685-39.933,89.186-89.186c-0.637-62.858,22.538-111.977,84.335-146.073c43.128-23.795,57.273-79.174,32.645-121.831
				C401.938,16.633,371.584,0,340.776,0c-15.138,0-30.38,4.012-44.155,12.592c-26.945,16.783-55.111,25.842-84.068,25.842
				c-27.603,0-55.923-8.229-84.603-25.842C114.127,4.102,98.86,0.117,83.727,0.117c-30.815,0-61.091,16.511-77.607,45.119
				C-18.508,87.893-0.617,150.413,38.764,167.067z M269.218,313.467c0.151,14.856-5.59,28.92-16.162,39.601
				c-10.854,10.964-25.333,17.003-40.77,17.003c-15.501,0-29.585-5.719-39.659-16.104c-11.575-11.933-17.362-29.143-16.735-49.771
				c0.821-26.994-5.846-57.302-19.86-85.232l76.221-43.714l76.464,44.44C275.303,246.634,268.857,277.793,269.218,313.467z
				 M313.675,39.971c8.219-5.119,17.337-7.715,27.101-7.715c9.716,0,19.456,2.637,28.168,7.627
				c8.964,5.133,16.424,12.562,21.574,21.482c7.711,13.355,9.764,29.526,5.633,44.365c-3.986,14.317-13.193,26.071-25.926,33.096
				c-31.426,17.339-55.387,38.686-72.07,64.347l-76.342-44.369l0.254-88.378C253.201,68.694,283.972,58.472,313.675,39.971z
				 M34.054,61.364c10.324-17.882,29.358-28.991,49.673-28.991c9.681,0,19.136,2.664,27.343,7.705
				c30.014,18.433,60.908,28.619,91.975,30.346l-0.254,88.323l-76.13,43.662c-17.432-27.46-42.584-51.202-75.332-65.051
				c-8.637-3.653-16.373-13.527-20.695-26.414C24.921,93.911,26.232,74.913,34.054,61.364z"/>
		</g>
	</g>
</g>
</svg>
